@startuml
'https://plantuml.com/class-diagram

hide circle
skinparam classAttributeIconSize 0



class PlanController {
 +getFutureCashflows(): ResponseEntity<Iterable<PlanViewFLOW>>
}



class PlanService {
 +forDashBoardFutureCashflows(Integer numberOfMonths, Integer page, Integer batchSize): List<IDPlanCashFlow>
}
class PlanServiceImpl{
 +forDashBoardFutureCashflows(Integer numberOfMonths, Integer page, Integer batchSize): List<IDPlanCashFlow>

 }



interface PlanRepository <<interface>> {
  +findSomePlans(pageable): Plan
}
interface SubscriptionRepository <<interface>> {
  +calculateRevenueByMonth(): Double
 +calculateAnnualRevenue(): Double
}

class Subscription {
    -id
    -subType
    -date
    -subState
    -feeType
    Subscription(int id, string subType, date date, string subState, string feeType)
}

class Plan {
    -nMins
    -maxDevices
    -musicCollections
    -musicSuggestions
    -monthlyFee
    -annualFee
    -planState
    -planType
    -planPromote
    -HTMLdescription
    Plan(final String planType, final Integer numMinutes, final Integer maxDevices, final Integer musicCollections,
                        final String musicSuggestions, final Integer monthlyFee, final Integer annualFee,
                        final String htmlDescription)
    getPlanType()
}
class IDPlanCashFlow {
   -planType
   -cashflows
   IDPlanCashFlow(final Plan plan)

}

class PlanType_CashFlow {
   -month
   -cashflow
   PlanType_CashFlow(final Integer month, final Double cashflow)
}

PlanRepository "1" --> "0..*" Plan:  records
PlanController ..> PlanService
PlanServiceImpl ..> PlanRepository

PlanServiceImpl ..> Plan
PlanService ..> Plan
PlanServiceImpl .up.|> PlanService



SubscriptionRepository "1" --> "0..*" Subscription:  records
PlanServiceImpl ..> SubscriptionRepository
IDPlanCashFlow "*" --> "1" Plan
IDPlanCashFlow "1" --> "*" PlanType_CashFlow
Plan "1" --> "*" Subscription
PlanServiceImpl ..> Subscription
@enduml